<svg width="16" height="16" viewBox="0 0 16 16" fill="none" xmlns="http://www.w3.org/2000/svg">
<rect width="16" height="16" rx="8" fill="#585858"/>
<path d="M8 12.875C6.70707 12.875 5.46709 12.3614 4.55285 11.4471C3.63861 10.5329 3.125 9.29293 3.125 8C3.125 6.70707 3.63861 5.46709 4.55285 4.55285C5.46709 3.63861 6.70707 3.125 8 3.125C9.00828 3.125 10.0672 3.42875 10.8327 3.93734C10.8737 3.96461 10.9089 3.9997 10.9364 4.04059C10.9639 4.08149 10.983 4.12739 10.9928 4.17568C11.0025 4.22398 11.0026 4.27372 10.9931 4.32206C10.9836 4.3704 10.9647 4.41639 10.9374 4.45742C10.9102 4.49845 10.8751 4.5337 10.8342 4.56117C10.7933 4.58864 10.7474 4.60779 10.6991 4.61752C10.6508 4.62724 10.601 4.62737 10.5527 4.61787C10.5044 4.60838 10.4584 4.58946 10.4173 4.56219C9.78125 4.13844 8.85359 3.875 8 3.875C7.18415 3.875 6.38663 4.11693 5.70827 4.57019C5.02992 5.02345 4.50121 5.66769 4.189 6.42143C3.87679 7.17518 3.7951 8.00458 3.95426 8.80475C4.11342 9.60492 4.50629 10.3399 5.08318 10.9168C5.66008 11.4937 6.39508 11.8866 7.19525 12.0457C7.99542 12.2049 8.82482 12.1232 9.57857 11.811C10.3323 11.4988 10.9766 10.9701 11.4298 10.2917C11.8831 9.61337 12.125 8.81585 12.125 8C12.125 6.76016 11.615 6.5 11.1875 6.5C10.76 6.5 10.25 6.76016 10.25 8V9.875C10.25 9.97446 10.2105 10.0698 10.1402 10.1402C10.0698 10.2105 9.97446 10.25 9.875 10.25C9.77554 10.25 9.68016 10.2105 9.60983 10.1402C9.53951 10.0698 9.5 9.97446 9.5 9.875V9.67531C9.16348 9.97703 8.74388 10.1704 8.29588 10.2302C7.84788 10.2901 7.39224 10.2136 6.98833 10.0108C6.58441 9.80797 6.25094 9.4882 6.03137 9.09314C5.81179 8.69809 5.71628 8.24606 5.75728 7.79594C5.79828 7.34583 5.97389 6.9185 6.26124 6.56962C6.54858 6.22074 6.93434 5.96648 7.36825 5.83998C7.80217 5.71348 8.26412 5.72059 8.69393 5.86039C9.12375 6.00019 9.5015 6.26619 9.77797 6.62375C10.0592 6.06125 10.5444 5.75 11.1875 5.75C12.2441 5.75 12.875 6.59094 12.875 8C12.8736 9.29251 12.3596 10.5317 11.4456 11.4456C10.5317 12.3596 9.29251 12.8736 8 12.875ZM8 6.5C7.70333 6.5 7.41332 6.58797 7.16664 6.7528C6.91997 6.91762 6.72771 7.15189 6.61418 7.42598C6.50065 7.70006 6.47094 8.00166 6.52882 8.29264C6.5867 8.58361 6.72956 8.85088 6.93934 9.06066C7.14912 9.27044 7.41639 9.4133 7.70736 9.47118C7.99834 9.52906 8.29994 9.49935 8.57402 9.38582C8.84811 9.27229 9.08238 9.08003 9.2472 8.83336C9.41203 8.58668 9.5 8.29667 9.5 8C9.5 7.60218 9.34196 7.22064 9.06066 6.93934C8.77936 6.65804 8.39782 6.5 8 6.5Z" fill="white"/>
</svg>
