<svg width="16" height="16" viewBox="0 0 16 16" fill="none" xmlns="http://www.w3.org/2000/svg">
<rect width="16" height="16" rx="8" fill="#585858"/>
<path d="M8 5.75C7.55499 5.75 7.11998 5.88196 6.74997 6.12919C6.37996 6.37643 6.09157 6.72783 5.92127 7.13896C5.75097 7.5501 5.70642 8.0025 5.79323 8.43895C5.88005 8.87541 6.09434 9.27632 6.40901 9.59099C6.72368 9.90566 7.12459 10.12 7.56105 10.2068C7.9975 10.2936 8.4499 10.249 8.86104 10.0787C9.27217 9.90843 9.62357 9.62004 9.87081 9.25003C10.118 8.88002 10.25 8.44501 10.25 8C10.2494 7.40345 10.0121 6.83152 9.59031 6.4097C9.16848 5.98787 8.59655 5.75062 8 5.75ZM8 9.5C7.70333 9.5 7.41332 9.41203 7.16664 9.2472C6.91997 9.08238 6.72771 8.84811 6.61418 8.57402C6.50065 8.29994 6.47094 7.99834 6.52882 7.70736C6.5867 7.41639 6.72956 7.14912 6.93934 6.93934C7.14912 6.72956 7.41639 6.5867 7.70736 6.52882C7.99834 6.47094 8.29994 6.50065 8.57402 6.61418C8.84811 6.72771 9.08238 6.91997 9.2472 7.16664C9.41203 7.41332 9.5 7.70333 9.5 8C9.5 8.39782 9.34196 8.77936 9.06066 9.06066C8.77936 9.34196 8.39782 9.5 8 9.5ZM10.25 3.125H5.75C5.05404 3.12574 4.38679 3.40255 3.89467 3.89467C3.40255 4.38679 3.12574 5.05404 3.125 5.75V10.25C3.12574 10.946 3.40255 11.6132 3.89467 12.1053C4.38679 12.5975 5.05404 12.8743 5.75 12.875H10.25C10.946 12.8743 11.6132 12.5975 12.1053 12.1053C12.5975 11.6132 12.8743 10.946 12.875 10.25V5.75C12.8743 5.05404 12.5975 4.38679 12.1053 3.89467C11.6132 3.40255 10.946 3.12574 10.25 3.125ZM12.125 10.25C12.125 10.7473 11.9275 11.2242 11.5758 11.5758C11.2242 11.9275 10.7473 12.125 10.25 12.125H5.75C5.25272 12.125 4.77581 11.9275 4.42417 11.5758C4.07254 11.2242 3.875 10.7473 3.875 10.25V5.75C3.875 5.25272 4.07254 4.77581 4.42417 4.42417C4.77581 4.07254 5.25272 3.875 5.75 3.875H10.25C10.7473 3.875 11.2242 4.07254 11.5758 4.42417C11.9275 4.77581 12.125 5.25272 12.125 5.75V10.25ZM11 5.5625C11 5.67375 10.967 5.78251 10.9052 5.87501C10.8434 5.96751 10.7555 6.03961 10.6528 6.08218C10.55 6.12476 10.4369 6.1359 10.3278 6.11419C10.2186 6.09249 10.1184 6.03891 10.0398 5.96025C9.96109 5.88158 9.90751 5.78135 9.88581 5.67224C9.8641 5.56312 9.87524 5.45002 9.91782 5.34724C9.96039 5.24446 10.0325 5.15661 10.125 5.0948C10.2175 5.03299 10.3262 5 10.4375 5C10.5867 5 10.7298 5.05926 10.8352 5.16475C10.9407 5.27024 11 5.41332 11 5.5625Z" fill="white"/>
</svg>
