<svg width="16" height="16" viewBox="0 0 16 16" fill="none" xmlns="http://www.w3.org/2000/svg">
<rect width="16" height="16" rx="8" fill="#585858"/>
<path d="M12.125 3.125H3.875C3.67609 3.125 3.48532 3.20402 3.34467 3.34467C3.20402 3.48532 3.125 3.67609 3.125 3.875V12.125C3.125 12.3239 3.20402 12.5147 3.34467 12.6553C3.48532 12.796 3.67609 12.875 3.875 12.875H12.125C12.3239 12.875 12.5147 12.796 12.6553 12.6553C12.796 12.5147 12.875 12.3239 12.875 12.125V3.875C12.875 3.67609 12.796 3.48532 12.6553 3.34467C12.5147 3.20402 12.3239 3.125 12.125 3.125ZM12.125 12.125H3.875V3.875H12.125V12.125ZM6.5 7.25V10.25C6.5 10.3495 6.46049 10.4448 6.39016 10.5152C6.31984 10.5855 6.22446 10.625 6.125 10.625C6.02554 10.625 5.93016 10.5855 5.85984 10.5152C5.78951 10.4448 5.75 10.3495 5.75 10.25V7.25C5.75 7.15054 5.78951 7.05516 5.85984 6.98484C5.93016 6.91451 6.02554 6.875 6.125 6.875C6.22446 6.875 6.31984 6.91451 6.39016 6.98484C6.46049 7.05516 6.5 7.15054 6.5 7.25ZM10.625 8.5625V10.25C10.625 10.3495 10.5855 10.4448 10.5152 10.5152C10.4448 10.5855 10.3495 10.625 10.25 10.625C10.1505 10.625 10.0552 10.5855 9.98483 10.5152C9.91451 10.4448 9.875 10.3495 9.875 10.25V8.5625C9.875 8.31386 9.77623 8.0754 9.60041 7.89959C9.4246 7.72377 9.18614 7.625 8.9375 7.625C8.68886 7.625 8.4504 7.72377 8.27459 7.89959C8.09877 8.0754 8 8.31386 8 8.5625V10.25C8 10.3495 7.96049 10.4448 7.89016 10.5152C7.81984 10.5855 7.72446 10.625 7.625 10.625C7.52554 10.625 7.43016 10.5855 7.35984 10.5152C7.28951 10.4448 7.25 10.3495 7.25 10.25V7.25C7.25047 7.15815 7.28463 7.06966 7.34601 7.00132C7.40738 6.93298 7.49171 6.88955 7.58299 6.87926C7.67426 6.86897 7.76614 6.89254 7.8412 6.9455C7.91625 6.99846 7.96925 7.07712 7.99016 7.16656C8.24384 6.99447 8.5396 6.89473 8.84569 6.87806C9.15178 6.86138 9.45663 6.92839 9.72751 7.0719C9.99839 7.21541 10.2251 7.43 10.3832 7.69261C10.5413 7.95523 10.6249 8.25596 10.625 8.5625ZM6.6875 5.9375C6.6875 6.04875 6.65451 6.15751 6.5927 6.25001C6.53089 6.34251 6.44304 6.41461 6.34026 6.45718C6.23748 6.49976 6.12438 6.5109 6.01526 6.48919C5.90615 6.46749 5.80592 6.41391 5.72725 6.33525C5.64859 6.25658 5.59501 6.15635 5.57331 6.04724C5.5516 5.93812 5.56274 5.82502 5.60532 5.72224C5.64789 5.61946 5.71999 5.53161 5.81249 5.4698C5.90499 5.40799 6.01375 5.375 6.125 5.375C6.27418 5.375 6.41726 5.43426 6.52275 5.53975C6.62824 5.64524 6.6875 5.78832 6.6875 5.9375Z" fill="white"/>
</svg>
