<svg width="16" height="16" viewBox="0 0 16 16" fill="none" xmlns="http://www.w3.org/2000/svg">
<rect width="16" height="16" rx="8" fill="#585858"/>
<path d="M12.4236 9.42772L10.2153 8.43819L10.2092 8.43537C10.0946 8.38634 9.96952 8.36666 9.84536 8.37812C9.7212 8.38958 9.60186 8.43181 9.49813 8.501C9.48592 8.50907 9.47418 8.51783 9.46297 8.52725L8.32204 9.4999C7.59922 9.14881 6.85297 8.40819 6.50188 7.69475L7.47594 6.53647C7.48532 6.52475 7.49422 6.51303 7.50266 6.50037C7.57036 6.39692 7.61144 6.27834 7.62223 6.15517C7.63303 6.03201 7.61321 5.90809 7.56454 5.79444V5.78881L6.57219 3.57678C6.50785 3.42831 6.39722 3.30463 6.25681 3.2242C6.1164 3.14378 5.95375 3.11092 5.79313 3.13053C5.15796 3.21411 4.57493 3.52605 4.15294 4.00807C3.73095 4.4901 3.49886 5.10926 3.5 5.7499C3.5 9.47178 6.52813 12.4999 10.25 12.4999C10.8906 12.5011 11.5098 12.269 11.9918 11.847C12.4739 11.425 12.7858 10.8419 12.8694 10.2068C12.889 10.0462 12.8562 9.8836 12.7759 9.7432C12.6956 9.6028 12.572 9.49213 12.4236 9.42772ZM10.25 11.7499C8.65924 11.7482 7.13412 11.1155 6.00928 9.99063C4.88444 8.86578 4.25174 7.34067 4.25 5.7499C4.24824 5.29217 4.41315 4.84943 4.71394 4.50439C5.01473 4.15935 5.43083 3.93559 5.88454 3.87491C5.88435 3.87678 5.88435 3.87866 5.88454 3.88053L6.86891 6.08365L5.9 7.24334C5.89017 7.25466 5.88124 7.26673 5.87329 7.27944C5.80275 7.38768 5.76136 7.51231 5.75315 7.64125C5.74494 7.77018 5.77017 7.89906 5.82641 8.01537C6.2511 8.88397 7.12625 9.75256 8.00422 10.1768C8.12139 10.2325 8.25101 10.2569 8.38042 10.2475C8.50982 10.2381 8.63458 10.1953 8.7425 10.1233C8.75454 10.1152 8.76612 10.1065 8.77719 10.0971L9.91672 9.1249L12.1198 10.1116C12.1198 10.1116 12.1236 10.1116 12.125 10.1116C12.0651 10.566 11.8416 10.9829 11.4965 11.2844C11.1514 11.586 10.7083 11.7514 10.25 11.7499Z" fill="white"/>
</svg>
