<svg width="16" height="16" viewBox="0 0 16 16" fill="none" xmlns="http://www.w3.org/2000/svg">
<rect width="16" height="16" rx="8" fill="#585858"/>
<path d="M8 3.125C7.03582 3.125 6.09329 3.41091 5.2916 3.94659C4.48991 4.48226 3.86507 5.24363 3.49609 6.13442C3.12711 7.02521 3.03057 8.00541 3.21867 8.95107C3.40678 9.89672 3.87108 10.7654 4.55286 11.4471C5.23464 12.1289 6.10328 12.5932 7.04894 12.7813C7.99459 12.9694 8.97479 12.8729 9.86558 12.5039C10.7564 12.1349 11.5177 11.5101 12.0534 10.7084C12.5891 9.90671 12.875 8.96418 12.875 8C12.8736 6.70749 12.3596 5.46831 11.4456 4.55436C10.5317 3.64042 9.29251 3.12636 8 3.125ZM6.76391 9.875H9.2361C8.98438 10.7347 8.5625 11.5095 8 12.1198C7.4375 11.5095 7.01563 10.7347 6.76391 9.875ZM6.59375 9.125C6.46938 8.38016 6.46938 7.61984 6.59375 6.875H9.40625C9.53063 7.61984 9.53063 8.38016 9.40625 9.125H6.59375ZM3.875 8C3.87468 7.61958 3.92721 7.24096 4.0311 6.875H5.83391C5.72203 7.62083 5.72203 8.37917 5.83391 9.125H4.0311C3.92721 8.75904 3.87468 8.38042 3.875 8ZM9.2361 6.125H6.76391C7.01563 5.26531 7.4375 4.49047 8 3.88016C8.5625 4.49047 8.98438 5.26531 9.2361 6.125ZM10.1661 6.875H11.9689C12.177 7.61056 12.177 8.38944 11.9689 9.125H10.1661C10.278 8.37917 10.278 7.62083 10.1661 6.875ZM11.6736 6.125H10.0128C9.82144 5.37196 9.50005 4.65811 9.06313 4.01562C9.62134 4.16563 10.142 4.43081 10.5916 4.79409C11.0411 5.15738 11.4097 5.61073 11.6736 6.125ZM6.93688 4.01562C6.49995 4.65811 6.17856 5.37196 5.98719 6.125H4.32641C4.59028 5.61073 4.95886 5.15738 5.40844 4.79409C5.85803 4.43081 6.37867 4.16563 6.93688 4.01562ZM4.32641 9.875H5.98719C6.17856 10.628 6.49995 11.3419 6.93688 11.9844C6.37867 11.8344 5.85803 11.5692 5.40844 11.2059C4.95886 10.8426 4.59028 10.3893 4.32641 9.875ZM9.06313 11.9844C9.50005 11.3419 9.82144 10.628 10.0128 9.875H11.6736C11.4097 10.3893 11.0411 10.8426 10.5916 11.2059C10.142 11.5692 9.62134 11.8344 9.06313 11.9844Z" fill="white"/>
</svg>
